<?xml version="1.0" encoding="utf-8"?>
<!-- Generator: Adobe Illustrator 16.0.4, SVG Export Plug-In . SVG Version: 6.00 Build 0)  -->
<!DOCTYPE svg PUBLIC "-//W3C//DTD SVG 1.1//EN" "http://www.w3.org/Graphics/SVG/1.1/DTD/svg11.dtd">
<svg version="1.1" id="Laag_1" xmlns="http://www.w3.org/2000/svg" xmlns:xlink="http://www.w3.org/1999/xlink" x="0px" y="0px"
	 width="70px" height="70px" viewBox="0 0 70 70" enable-background="new 0 0 70 70" xml:space="preserve">
<path fill="#40BE72" stroke="#40BE72" stroke-miterlimit="10" d="M6.23,28.394c0.542-0.589,1.25-0.873,2.008-1.024
	c2.068-0.409,4.116-0.307,6.109,0.396c1.742,0.614,2.875,1.894,3.643,3.528c0.033,0.072,0.066,0.144,0.1,0.217
	c0.018,0.035,0.036,0.069,0.066,0.134c0.172-0.304,0.338-0.589,0.496-0.878c0.082-0.147,0.15-0.179,0.275-0.035
	c0.156,0.179,0.324,0.354,0.506,0.505c0.157,0.133,0.111,0.199-0.02,0.315c-0.586,0.525-0.933,1.177-0.991,1.973
	c-0.013,0.185-0.02,0.296,0.254,0.267c1.188-0.134,2.376-0.215,3.561,0.04c0.807,0.173,1.517,0.515,2.05,1.174
	c0.132,0.165,0.146,0.275,0.025,0.458c-0.708,1.066-1.388,2.156-1.792,3.38c-0.288,0.874-0.479,1.78-0.694,2.675
	c-0.108,0.45,0.017,0.865,0.256,1.254c0.355,0.573,0.74,1.129,1.029,1.741c0.518,1.094,0.585,2.173,0,3.283
	c-0.427,0.817-0.779,1.672-0.892,2.605c-0.12,1.004,0.208,1.827,0.986,2.452c0.695,0.552,1.475,0.966,2.322,1.246
	c0.211,0.068,0.425,0.093,0.645,0.032c0.148,0.018,0.082,0.118,0.072,0.193c-0.246,1.258-0.751,2.351-1.983,2.937
	c-0.691,0.329-1.43,0.285-2.166,0.247c-0.729-0.038-1.419-0.221-2.104-0.485c-1.016-0.395-2.083-0.382-3.036,0.123
	c-1.131,0.594-2.208,0.459-3.294,0.012c-1.117-0.459-1.739-1.375-2.111-2.482c-0.079-0.235-0.234-0.525-0.158-0.703
	c0.081-0.193,0.436-0.14,0.669-0.196c0.656-0.164,1.297-0.368,1.906-0.666c1.437-0.701,2.109-1.933,2.355-3.441
	c0.151-0.92-0.008-1.785-0.466-2.616c-0.644-1.165-0.584-2.405-0.278-3.654c0.167-0.684,0.381-1.356,0.329-2.075
	c-0.115-1.606-0.791-2.907-2.064-3.903c-0.541-0.423-1.122-0.51-1.768-0.331c-0.129,0.036-0.257,0.107-0.437,0.073
	c0.355-0.441,0.749-0.815,1.171-1.161c1.365-1.11,2.917-1.796,4.657-2.042c0.187-0.025,0.255-0.089,0.255-0.273
	c0.001-0.44,0.051-0.874,0.207-1.289c0.039-0.104-0.008-0.193-0.045-0.285c-0.319-0.775-0.739-1.497-1.224-2.174
	c-0.262-0.37-0.7-0.391-1.107-0.4c-0.906-0.022-1.806,0.074-2.704,0.195c-0.808,0.111-1.605,0.271-2.403,0.434
	c-0.467,0.096-0.923-0.075-1.373-0.196c-1.06-0.291-1.995-0.82-2.842-1.511C6.23,28.434,6.23,28.415,6.23,28.394z"/>
<path fill="#40BE72" stroke="#40BE72" stroke-miterlimit="10" d="M42.828,10.846c0.127,0.51,0.386,0.713,0.908,0.718
	c0.528,0.002,1.01-0.209,1.52-0.291c0.609-0.097,1.213-0.205,1.811-0.363c1.021-0.273,1.873-0.802,2.576-1.583
	c0.061-0.065,0.123-0.131,0.183-0.196c0.007-0.005,0.019-0.005,0.028-0.008c0.047-0.004,0.044,0.036,0.04,0.059
	c-0.163,0.834-0.387,1.65-0.899,2.341c-0.395,0.531-0.57,1.092-0.413,1.732c0.15,0.633,0.147,1.281,0.228,1.921
	c0.008,0.05,0.011,0.099,0.02,0.149c0.14,0.684,0.416,0.808,1.058,0.427c-0.268,0.658-0.567,1.257-0.962,1.792
	c-0.428,0.58-0.803,1.18-1.031,1.866c-0.065,0.195-0.182,0.375-0.311,0.539c-0.102,0.133-0.198,0.273-0.282,0.42
	c-0.344,0.612-0.18,1.044,0.477,1.281c0.456,0.166,0.933,0.191,1.41,0.222c0.88,0.06,1.711,0.256,2.519,0.639
	c0.897,0.425,1.844,0.729,2.91,0.817c-0.297,0.158-0.547,0.29-0.795,0.426c-0.511,0.282-1.021,0.57-1.532,0.855
	c-0.421,0.234-0.8,0.518-1.129,0.872c-0.343,0.365-0.752,0.644-1.169,0.917c-0.88,0.575-0.922,0.879-0.24,1.668
	c0.031,0.037,0.058,0.078,0.109,0.152c-0.639,0.142-1.252,0.279-1.868,0.416c-0.283,0.06-0.565,0.119-0.848,0.166
	c-0.238,0.039-0.428,0.162-0.578,0.337c-0.274,0.316-0.256,0.586,0.081,0.838c0.729,0.544,1.378,1.159,1.883,1.931
	c0.253,0.393,0.608,0.723,0.901,1.064c-0.402,0-0.814,0.015-1.226-0.001c-1.671-0.068-3.331-0.218-4.941-0.707
	c-0.084-0.025-0.176-0.037-0.265-0.043c-0.431-0.027-0.533,0.089-0.476,0.52c0.019,0.116,0.022,0.236,0.034,0.357
	c0.013,0.107,0.03,0.216,0.047,0.324c-0.028,0.002-0.05,0.014-0.062,0.006c-1.025-0.627-2.05-1.257-2.993-2.004
	c-0.62-0.49-1.041-1.173-1.577-1.749c-0.46-0.496-0.973-0.867-1.677-0.92c-0.263-0.021-0.526-0.101-0.788-0.159
	c-0.353-0.077-0.621-0.005-0.851,0.315c-1.329,1.86-2.695,3.69-3.959,5.596c-0.302,0.456-0.566,0.934-0.809,1.424
	c-0.125,0.253-0.312,0.439-0.589,0.506c-0.202,0.054-0.404,0.045-0.541-0.139c-0.134-0.183-0.064-0.364,0.052-0.525
	c1.432-1.967,2.677-4.069,4.264-5.926c0.346-0.407,0.655-0.851,0.952-1.298c0.562-0.849,0.443-2.004-0.259-2.755
	c-0.438-0.47-0.981-0.763-1.574-0.983c-1.314-0.492-2.572-1.098-3.738-1.935c0.099-0.041,0.176-0.07,0.25-0.11
	c0.305-0.152,0.41-0.41,0.308-0.746c-0.078-0.252-0.224-0.463-0.368-0.678c-0.482-0.717-1.043-1.376-1.64-2.053
	c0.284-0.043,0.534-0.102,0.662-0.355c0.137-0.271,0.084-0.551-0.016-0.811c-0.328-0.854-0.785-1.645-1.241-2.435
	c-0.05-0.084-0.102-0.167-0.188-0.306c0.654,0.337,1.255,0.652,1.876,0.918c0.583,0.252,1.172,0.483,1.801,0.606
	c0.786,0.151,1.33-0.34,1.234-1.133c-0.012-0.101,0.027-0.144,0.079-0.204c0.618-0.714,1.055-1.507,1.143-2.471
	c0.031-0.331,0.191-0.625,0.375-0.898c0.166-0.248,0.34-0.488,0.517-0.729c0.734-1.013,0.813-1.203,1.188-2.894
	c0.083,0.096,0.152,0.171,0.218,0.247c0.706,0.81,1.376,1.646,2.006,2.519c0.583,0.8,0.996,1.667,1.164,2.646
	c0.027,0.155,0.07,0.309,0.12,0.459c0.14,0.403,0.329,0.474,0.699,0.255c0.268-0.157,0.497-0.362,0.719-0.578
	c0.852-0.818,1.513-1.793,2.258-2.698c0.335-0.407,0.672-0.81,1.104-1.124c0.15,0.011,0.075,0.127,0.089,0.2
	C42.825,10.61,42.793,10.732,42.828,10.846z"/>
<path fill="#40BE72" stroke="#40BE72" stroke-miterlimit="10" d="M62.712,59.617c-0.737-0.671-1.595-1.123-2.479-1.537
	c-1.595-0.753-3.239-1.4-4.866-2.078c-1.199-0.5-2.493-0.569-3.769-0.667c-2.615-0.204-5.052-0.918-7.211-2.452
	c-1.2-0.854-2.112-1.93-2.475-3.392c-0.315-1.275-0.142-2.522,0.247-3.758c0.306-0.966,0.769-1.87,1.012-2.861
	c0.158-0.656,0.298-1.313,0.402-1.981c0.03-0.212-0.043-0.268-0.217-0.327c-1.051-0.382-2.133-0.437-3.231-0.313
	c-0.762,0.089-1.494,0.307-2.225,0.533c-0.248,0.078-0.499,0.133-0.761,0.128c-0.209-0.005-0.301-0.109-0.312-0.316
	c-0.021-0.479,0.162-0.758,0.648-0.899c0.547-0.158,1.112-0.206,1.676-0.277c0.918-0.109,1.836-0.198,2.764-0.101
	c0.688,0.075,1.337,0.297,1.97,0.556c0.529,0.217,1.026,0.182,1.528-0.043c0.699-0.312,1.362-0.691,2.021-1.084
	c1.317-0.781,2.721-1.299,4.271-1.317c2.061-0.028,3.837,0.75,5.42,2.005c1.695,1.344,2.661,3.15,3.213,5.206
	c0.418,1.563,0.591,3.16,0.625,4.773c0.034,1.729,0.044,3.459,0.322,5.174c0.272,1.682,0.672,3.32,1.397,4.873
	C62.707,59.504,62.742,59.541,62.712,59.617z"/>
</svg>
