<?xml version="1.0" encoding="utf-8"?>
<!-- Generator: Adobe Illustrator 16.0.4, SVG Export Plug-In . SVG Version: 6.00 Build 0)  -->
<!DOCTYPE svg PUBLIC "-//W3C//DTD SVG 1.1//EN" "http://www.w3.org/Graphics/SVG/1.1/DTD/svg11.dtd">
<svg version="1.1" id="Laag_1" xmlns="http://www.w3.org/2000/svg" xmlns:xlink="http://www.w3.org/1999/xlink" x="0px" y="0px"
	 width="70px" height="70px" viewBox="0 0 70 70" enable-background="new 0 0 70 70" xml:space="preserve">
<circle fill="#D97120" cx="35" cy="35" r="35"/>
<path fill="#FFFFFF" d="M37.057,24.329c-1.133,1.272-2.668,1.63-4.248,1.838c-1.861,0.245-3.711,0.142-5.531-0.336
	c-0.98-0.257-1.878-0.718-2.79-1.147c-1.777-0.838-3.456-1.833-4.995-3.06c-0.045-0.036-0.089-0.074-0.132-0.183
	c0.293,0,0.587,0.005,0.88,0c3.809-0.052,7.59-0.403,11.325-1.169c2.653-0.544,5.25-1.276,7.713-2.425
	c0.344-0.159,0.676-0.339,1.007-0.515c0.079-0.041,0.133-0.08,0.222-0.012c1.311,1.008,2.747,1.814,4.164,2.653
	c3.582,2.121,7.217,4.152,10.855,6.175c0.252,0.14,0.252,0.14,0.056,0.356c-1.106,1.219-2.506,1.958-4.046,2.455
	c-2.155,0.695-4.369,0.986-6.62,0.748c-3.272-0.347-5.849-1.864-7.537-4.755C37.262,24.754,37.165,24.542,37.057,24.329z"/>
<path fill="#FFFFFF" d="M18.146,43.895c0.671-0.634,1.303-1.25,1.957-1.84c0.887-0.801,1.795-1.578,2.687-2.371
	c0.135-0.121,0.245-0.146,0.419-0.086c3.014,1.032,5.847,2.452,8.59,4.059c2.622,1.535,5.141,3.228,7.547,5.078
	c0.09,0.07,0.147,0.151,0.241-0.016c1.429-2.543,3.413-4.593,5.685-6.386c1.361-1.076,2.812-2.017,4.351-2.824
	c0.095-0.05,0.174-0.104,0.298-0.03c1.578,0.941,3.188,1.84,4.682,2.916c0.232,0.168,0.23,0.168-0.009,0.31
	c-3.511,2.054-6.805,4.405-9.761,7.207c-1.79,1.696-3.4,3.544-4.585,5.729c-0.063,0.118-0.121,0.239-0.183,0.358
	c-0.062,0.118-0.121,0.237-0.198,0.386c-0.291-0.469-0.61-0.883-0.966-1.269c-1.351-1.466-2.933-2.646-4.593-3.729
	c-3.128-2.035-6.476-3.644-9.908-5.092C22.359,45.434,20.288,44.648,18.146,43.895z"/>
<path fill="#FFFFFF" d="M58.755,31.254c-1.114,0.55-2.229,1.043-3.374,1.475c-2.98,1.123-6.042,1.971-9.181,2.474
	c-3.552,0.568-6.837-0.282-9.871-2.17c-0.363-0.228-0.716-0.475-1.046-0.747c-0.083-0.068-0.134-0.091-0.229-0.009
	c-1.044,0.901-2.296,1.272-3.635,1.384c-2.601,0.219-5.084-0.333-7.499-1.235c-4.189-1.564-8.314-3.291-12.448-4.992
	c-0.114-0.048-0.227-0.1-0.407-0.178c2.009,0.134,3.943,0.131,5.875,0.077c2.667-0.073,5.324-0.287,7.965-0.68
	c0.242-0.035,0.483-0.07,0.724-0.107c0.152-0.025,0.293-0.012,0.441,0.048c3.94,1.574,8.012,2.705,12.168,3.54
	c2.091,0.418,4.195,0.707,6.326,0.795c2.279,0.096,4.539-0.028,6.75-0.646c1.049-0.294,2.049-0.696,2.988-1.25
	c0.09-0.054,0.165-0.118,0.293-0.055c1.387,0.699,2.771,1.401,4.098,2.214C58.707,31.199,58.718,31.215,58.755,31.254z"/>
<path fill="#FFFFFF" d="M16.637,36.449c0.972-0.389,1.933-0.78,2.884-1.197c1.161-0.507,2.308-1.046,3.438-1.621
	c0.149-0.076,0.274-0.095,0.444-0.036c2.938,1.018,5.926,1.867,8.989,2.42c2.427,0.439,4.872,0.734,7.336,0.859
	c4.062,0.205,8.016-0.391,11.892-1.572c0.778-0.237,1.553-0.485,2.325-0.738c0.135-0.045,0.234-0.037,0.354,0.034
	c0.309,0.185,0.623,0.356,0.967,0.55c-1.033,0.451-2.021,0.906-2.992,1.395c-2.979,1.499-5.847,3.179-8.463,5.257
	c-1.682,1.338-3.223,2.811-4.396,4.629c-0.226,0.352-0.222,0.35-0.558,0.115c-2.936-2.025-5.994-3.845-9.173-5.457
	c-2.881-1.46-5.837-2.729-8.934-3.656C19.4,37.027,18.032,36.702,16.637,36.449z"/>
</svg>
