<?xml version="1.0" encoding="utf-8"?>
<!-- Generator: Adobe Illustrator 16.0.4, SVG Export Plug-In . SVG Version: 6.00 Build 0)  -->
<!DOCTYPE svg PUBLIC "-//W3C//DTD SVG 1.1//EN" "http://www.w3.org/Graphics/SVG/1.1/DTD/svg11.dtd">
<svg version="1.1" id="Laag_1" xmlns="http://www.w3.org/2000/svg" xmlns:xlink="http://www.w3.org/1999/xlink" x="0px" y="0px"
	 width="70px" height="70px" viewBox="0 0 70 70" enable-background="new 0 0 70 70" xml:space="preserve">
<circle fill="#40BE72" cx="35" cy="35" r="35"/>
<path fill="#FFFFFF" d="M13.375,29.836c0.405-0.44,0.934-0.652,1.5-0.765c1.545-0.306,3.075-0.229,4.564,0.295
	c1.301,0.459,2.148,1.415,2.721,2.636c0.025,0.054,0.05,0.108,0.075,0.162c0.013,0.026,0.026,0.052,0.049,0.1
	c0.129-0.227,0.253-0.44,0.371-0.656c0.061-0.11,0.112-0.134,0.206-0.026c0.116,0.134,0.242,0.264,0.378,0.377
	c0.117,0.099,0.083,0.149-0.015,0.236c-0.438,0.392-0.697,0.879-0.74,1.474c-0.01,0.138-0.015,0.221,0.19,0.199
	c0.887-0.1,1.775-0.16,2.66,0.03c0.603,0.129,1.133,0.384,1.531,0.877c0.099,0.123,0.109,0.205,0.019,0.342
	c-0.529,0.797-1.037,1.612-1.339,2.525c-0.215,0.653-0.358,1.33-0.518,1.999c-0.081,0.335,0.012,0.646,0.191,0.936
	c0.265,0.429,0.553,0.844,0.769,1.301c0.387,0.817,0.437,1.623,0,2.453c-0.319,0.61-0.582,1.249-0.666,1.946
	c-0.09,0.75,0.155,1.366,0.736,1.832c0.519,0.413,1.102,0.722,1.735,0.931c0.158,0.051,0.318,0.07,0.482,0.025
	c0.111,0.012,0.061,0.087,0.054,0.144c-0.184,0.94-0.561,1.756-1.482,2.193c-0.516,0.247-1.068,0.213-1.618,0.185
	c-0.545-0.028-1.06-0.165-1.572-0.363c-0.759-0.294-1.556-0.284-2.268,0.092c-0.845,0.444-1.649,0.343-2.461,0.009
	c-0.834-0.343-1.299-1.027-1.577-1.854c-0.059-0.176-0.175-0.393-0.118-0.526c0.06-0.144,0.325-0.104,0.5-0.146
	c0.49-0.123,0.969-0.276,1.424-0.498c1.073-0.524,1.575-1.443,1.759-2.57c0.113-0.688-0.006-1.335-0.348-1.956
	c-0.481-0.87-0.436-1.797-0.208-2.729c0.125-0.511,0.285-1.014,0.246-1.551c-0.086-1.2-0.591-2.172-1.542-2.916
	c-0.404-0.316-0.838-0.381-1.321-0.247c-0.096,0.028-0.192,0.08-0.326,0.055c0.265-0.331,0.559-0.61,0.875-0.867
	c1.02-0.83,2.179-1.342,3.479-1.526c0.139-0.019,0.191-0.066,0.191-0.204c0.001-0.329,0.038-0.653,0.154-0.963
	c0.029-0.078-0.006-0.144-0.034-0.213c-0.238-0.579-0.552-1.118-0.914-1.624c-0.196-0.276-0.523-0.292-0.827-0.299
	c-0.677-0.016-1.35,0.055-2.02,0.146c-0.603,0.083-1.199,0.203-1.795,0.324c-0.349,0.072-0.69-0.056-1.026-0.147
	c-0.792-0.217-1.49-0.612-2.123-1.128C13.375,29.866,13.375,29.852,13.375,29.836z"/>
<path fill="#FFFFFF" d="M40.716,16.727c0.095,0.381,0.288,0.533,0.679,0.536c0.394,0.002,0.754-0.156,1.134-0.217
	c0.455-0.073,0.907-0.153,1.353-0.271c0.762-0.204,1.399-0.599,1.925-1.183c0.045-0.049,0.091-0.098,0.136-0.146
	c0.005-0.004,0.014-0.004,0.021-0.006c0.035-0.003,0.033,0.027,0.03,0.044c-0.122,0.623-0.289,1.233-0.672,1.749
	c-0.294,0.397-0.426,0.816-0.309,1.294c0.113,0.473,0.111,0.957,0.171,1.435c0.005,0.037,0.007,0.074,0.014,0.111
	c0.104,0.511,0.311,0.604,0.79,0.319c-0.2,0.492-0.424,0.939-0.718,1.339c-0.32,0.433-0.6,0.882-0.771,1.394
	c-0.049,0.146-0.136,0.28-0.232,0.403c-0.076,0.099-0.148,0.204-0.21,0.314c-0.257,0.457-0.135,0.78,0.355,0.957
	c0.341,0.124,0.698,0.143,1.054,0.166c0.657,0.045,1.278,0.191,1.882,0.477c0.669,0.318,1.377,0.545,2.173,0.611
	c-0.221,0.118-0.408,0.216-0.593,0.318c-0.382,0.211-0.763,0.426-1.145,0.639c-0.314,0.175-0.597,0.387-0.844,0.651
	c-0.255,0.273-0.561,0.481-0.873,0.685c-0.657,0.43-0.688,0.657-0.18,1.247c0.024,0.027,0.043,0.058,0.083,0.113
	c-0.478,0.106-0.936,0.209-1.396,0.311c-0.211,0.045-0.422,0.089-0.633,0.124c-0.179,0.029-0.32,0.121-0.432,0.252
	c-0.205,0.236-0.192,0.438,0.06,0.626c0.546,0.407,1.029,0.866,1.406,1.443c0.19,0.293,0.455,0.54,0.675,0.795
	c-0.301,0-0.609,0.011-0.916-0.001c-1.249-0.051-2.489-0.163-3.692-0.528c-0.062-0.019-0.131-0.028-0.197-0.032
	c-0.323-0.02-0.398,0.066-0.356,0.388c0.014,0.087,0.017,0.177,0.026,0.267c0.01,0.08,0.022,0.161,0.035,0.242
	c-0.022,0.002-0.038,0.01-0.047,0.004c-0.766-0.468-1.532-0.939-2.237-1.497c-0.463-0.366-0.777-0.876-1.177-1.306
	c-0.344-0.37-0.726-0.648-1.253-0.687c-0.197-0.016-0.393-0.076-0.589-0.119c-0.263-0.058-0.464-0.004-0.635,0.235
	c-0.993,1.39-2.014,2.757-2.958,4.181c-0.226,0.34-0.423,0.697-0.604,1.064c-0.094,0.188-0.233,0.328-0.44,0.378
	c-0.151,0.04-0.302,0.033-0.404-0.104c-0.1-0.137-0.048-0.272,0.039-0.393c1.07-1.469,2-3.04,3.185-4.427
	c0.259-0.304,0.49-0.636,0.711-0.97c0.42-0.634,0.331-1.497-0.193-2.058c-0.328-0.351-0.733-0.57-1.176-0.735
	c-0.982-0.367-1.922-0.82-2.793-1.445c0.074-0.031,0.132-0.053,0.187-0.082c0.228-0.114,0.306-0.307,0.23-0.558
	c-0.058-0.188-0.167-0.346-0.275-0.506c-0.36-0.536-0.779-1.028-1.225-1.534c0.212-0.032,0.399-0.076,0.494-0.265
	c0.102-0.202,0.063-0.412-0.012-0.606c-0.245-0.638-0.586-1.229-0.927-1.819c-0.037-0.063-0.076-0.125-0.14-0.229
	c0.489,0.252,0.938,0.487,1.402,0.686c0.436,0.188,0.876,0.361,1.345,0.453c0.587,0.113,0.994-0.254,0.922-0.847
	c-0.009-0.075,0.02-0.107,0.059-0.152c0.462-0.534,0.788-1.126,0.854-1.846c0.023-0.247,0.143-0.467,0.28-0.671
	c0.124-0.185,0.254-0.365,0.386-0.545c0.549-0.757,0.608-0.899,0.888-2.162c0.062,0.072,0.113,0.128,0.163,0.185
	c0.527,0.605,1.028,1.23,1.499,1.881c0.435,0.598,0.743,1.246,0.869,1.977c0.02,0.116,0.053,0.231,0.09,0.343
	c0.104,0.301,0.245,0.354,0.522,0.191c0.2-0.118,0.371-0.271,0.537-0.432c0.635-0.611,1.13-1.34,1.686-2.016
	c0.251-0.304,0.503-0.605,0.825-0.839c0.112,0.008,0.057,0.095,0.066,0.149C40.714,16.551,40.69,16.642,40.716,16.727z"/>
<path fill="#FFFFFF" d="M55.57,53.162c-0.55-0.501-1.191-0.839-1.851-1.148c-1.192-0.563-2.42-1.046-3.636-1.553
	c-0.896-0.373-1.862-0.425-2.816-0.498c-1.953-0.152-3.773-0.686-5.386-1.832c-0.896-0.638-1.578-1.441-1.849-2.534
	c-0.235-0.953-0.105-1.884,0.185-2.807c0.229-0.721,0.574-1.397,0.755-2.137c0.119-0.491,0.223-0.982,0.301-1.481
	c0.023-0.158-0.032-0.199-0.161-0.244c-0.786-0.285-1.594-0.326-2.415-0.234c-0.569,0.066-1.116,0.229-1.662,0.398
	c-0.185,0.058-0.373,0.099-0.568,0.095c-0.156-0.003-0.225-0.081-0.232-0.236c-0.017-0.358,0.121-0.566,0.484-0.672
	c0.408-0.118,0.831-0.154,1.251-0.207c0.686-0.082,1.372-0.148,2.065-0.075c0.515,0.056,0.999,0.222,1.472,0.415
	c0.396,0.162,0.767,0.136,1.141-0.032c0.523-0.233,1.018-0.517,1.51-0.809c0.985-0.584,2.034-0.971,3.192-0.985
	c1.539-0.021,2.866,0.561,4.049,1.498c1.266,1.004,1.987,2.354,2.4,3.888c0.313,1.168,0.441,2.362,0.466,3.567
	c0.026,1.292,0.034,2.584,0.242,3.866c0.203,1.255,0.502,2.48,1.044,3.64C55.566,53.077,55.593,53.105,55.57,53.162z"/>
</svg>
