<?xml version="1.0" encoding="utf-8"?>
<!-- Generator: Adobe Illustrator 16.0.4, SVG Export Plug-In . SVG Version: 6.00 Build 0)  -->
<!DOCTYPE svg PUBLIC "-//W3C//DTD SVG 1.1//EN" "http://www.w3.org/Graphics/SVG/1.1/DTD/svg11.dtd">
<svg version="1.1" id="Laag_1" xmlns="http://www.w3.org/2000/svg" xmlns:xlink="http://www.w3.org/1999/xlink" x="0px" y="0px"
	 width="70px" height="70px" viewBox="0 0 70 70" enable-background="new 0 0 70 70" xml:space="preserve">
<circle fill="#2C88E6" cx="35" cy="35" r="35"/>
<path fill="#FFFFFF" d="M50.222,50.711c-0.286-0.096-0.591-0.076-0.886-0.116c-0.961-0.134-1.905-0.33-2.8-0.727
	c-0.458-0.203-0.687-0.514-0.673-1.042c0.026-1.008,0.009-2.018,0.009-3.028c0-0.1-0.013-0.191-0.054-0.285
	c-0.204-0.457-0.137-0.729,0.264-1.032c0.116-0.088,0.183-0.186,0.229-0.322c1.06-3.109,3.088-5.312,6.149-6.537
	c0.293-0.118,0.595-0.213,0.914-0.234c0.44-0.034,0.616,0.175,0.51,0.602c-0.127,0.494-0.395,0.92-0.687,1.324
	c-1.171,1.632-2.507,3.107-4.111,4.327c-0.016,0.013-0.027,0.025-0.075,0.071c0.177-0.011,0.322-0.02,0.464-0.027
	c1.985-0.111,3.967-0.142,5.931,0.253c0.51,0.104,1.004,0.257,1.49,0.444c0.345,0.133,0.608,0.328,0.696,0.706
	c0,0.118,0,0.237,0,0.357c-0.18,0.355-0.148,0.74-0.14,1.121c0.021,0.817-0.035,1.635-0.045,2.452
	c-0.005,0.42-0.216,0.727-0.591,0.914c-0.534,0.271-1.108,0.421-1.691,0.543c-0.711,0.142-1.431,0.224-2.159,0.217
	c-0.135,0.012-0.271-0.024-0.405,0.02C51.78,50.711,51.002,50.711,50.222,50.711z"/>
<path fill="#FFFFFF" d="M52.957,50.676c1.186-0.078,2.359-0.215,3.48-0.637c0.073-0.027,0.144-0.062,0.217-0.092
	c0.494-0.196,0.707-0.561,0.707-1.091c0-0.981,0.029-1.962,0.029-2.943c0-0.199,0.152-0.306,0.199-0.469
	c0,1.707-0.001,3.417,0.003,5.128c0,0.119-0.024,0.142-0.142,0.142c-1.499-0.004-2.997-0.003-4.496-0.003
	c-0.015-0.009-0.018-0.017-0.013-0.025C52.948,50.679,52.953,50.676,52.957,50.676z"/>
<path fill="#FFFFFF" d="M41.033,35.332c0.03,1.429,0.051,2.86,0.12,4.289c0.085,1.725,0.205,3.448,0.191,5.177
	c-0.008,1.1-0.032,2.202-0.271,3.285c-0.068,0.309-0.158,0.611-0.331,0.882c-0.176,0.268-0.41,0.43-0.748,0.365
	c-0.094-0.019-0.121,0.021-0.148,0.102c-0.298,0.871-0.982,1.262-1.884,1.086c-0.242-0.046-0.418-0.172-0.557-0.373
	c-0.301-0.436-0.799-0.604-1.298-0.451c-0.192,0.059-0.325,0.199-0.446,0.347c-0.259,0.314-0.597,0.453-0.995,0.508
	c-0.406,0.054-0.72-0.091-0.98-0.388c-0.308-0.35-0.532-0.754-0.723-1.174c-0.535-1.182-0.813-2.431-0.963-3.711
	c-0.05-0.421-0.04-0.842-0.04-1.266c0-2.454,0.011-4.909-0.011-7.364c-0.017-2.011-0.07-4.022-0.093-6.034
	c-0.019-1.758-0.13-3.516-0.186-5.275c-0.037-1.144,0.211-2.211,0.723-3.22c0.632-1.251,1.31-2.479,2.173-3.592
	c0.066-0.083,0.128-0.169,0.153-0.274c0.035-0.151,0.053-0.296-0.128-0.387c-0.16-0.079-0.182-0.207-0.05-0.333
	c0.107-0.103,0.122-0.222,0.116-0.357c-0.015-0.344-0.027-0.686-0.033-1.028c-0.011-0.456,0.161-0.713,0.607-0.796
	c0.619-0.113,1.249-0.124,1.864,0.04c0.385,0.103,0.491,0.271,0.491,0.675c0,0.382,0.004,0.765-0.002,1.146
	c-0.002,0.123,0.025,0.203,0.129,0.281c0.197,0.152,0.189,0.264,0.003,0.381c-0.225,0.141-0.264,0.42-0.081,0.622
	c0.377,0.416,0.754,0.829,1.103,1.268c0.817,1.033,1.532,2.125,1.945,3.39c0.184,0.562,0.28,1.136,0.278,1.729
	c-0.007,1.842-0.012,3.682,0,5.524C40.974,32.047,41.008,33.689,41.033,35.332z"/>
<path fill="#FFFFFF" d="M23.059,39.404c0,1.023-0.002,2.046,0,3.068c0.007,2.632,0.016,5.266,0.03,7.896
	c0.001,0.178-0.033,0.215-0.214,0.194c-1.565-0.179-3.131-0.345-4.698-0.515c-0.707-0.076-1.415-0.154-2.124-0.224
	c-0.145-0.014-0.176-0.062-0.175-0.201c0.005-0.958,0-1.915-0.003-2.872c-0.003-1.42-0.008-2.837-0.013-4.254
	c-0.007-2.035-0.014-4.066-0.02-6.099c-0.003-1.18-0.003-2.361-0.007-3.542c-0.003-1.068-0.007-2.137-0.013-3.207
	c-0.002-0.388-0.004-0.778-0.016-1.167c-0.002-0.118,0.024-0.159,0.15-0.16c1.136-0.014,2.269-0.032,3.402-0.051
	c1.154-0.018,2.307-0.037,3.461-0.062c0.147-0.002,0.197,0.025,0.197,0.188c-0.006,1.22,0,2.44,0.003,3.661
	c0.004,1.434,0.009,2.864,0.012,4.297c0.002,1.015,0,2.031,0,3.048C23.042,39.404,23.05,39.404,23.059,39.404z"/>
<path fill="#FFFFFF" d="M23.956,50.36c0-1.37,0.004-2.696,0-4.024c-0.008-2.903-0.021-5.807-0.032-8.711
	c-0.007-1.873-0.012-3.747-0.021-5.623c-0.004-1.193-0.009-2.388-0.023-3.583c-0.002-0.165,0.04-0.208,0.205-0.203
	c0.757,0.027,1.515,0.042,2.273,0.055c0.163,0.003,0.223,0.046,0.223,0.23c-0.011,3.809-0.008,7.62-0.012,11.426
	c-0.002,2.31-0.008,4.62-0.013,6.93c-0.001,0.566-0.008,1.136-0.013,1.702c0,0.073,0.003,0.133-0.078,0.183
	C25.641,49.271,24.819,49.804,23.956,50.36z"/>
<path fill="#FFFFFF" d="M24.231,25.329c-0.408,0.689-0.794,1.339-1.175,1.991c-0.052,0.088-0.125,0.081-0.204,0.081
	c-0.797,0.015-1.594,0.028-2.392,0.041c-1.442,0.022-2.886,0.043-4.33,0.066c-0.077,0-0.154,0-0.258,0
	c0.339-0.491,0.663-0.958,0.986-1.429c0.115-0.168,0.235-0.334,0.344-0.507c0.062-0.101,0.135-0.133,0.254-0.134
	c1.095-0.01,2.189-0.023,3.282-0.043c1.101-0.019,2.202-0.043,3.302-0.065C24.09,25.328,24.141,25.329,24.231,25.329z"/>
<path fill="#FFFFFF" d="M21.235,24.616c-1.173,0-2.347-0.001-3.52,0.002c-0.129,0.001-0.183-0.018-0.179-0.167
	c0.012-0.375,0.001-0.752,0.004-1.126c0.002-0.299,0.126-0.41,0.424-0.419c1.672-0.062,3.345-0.127,5.016-0.19
	c0.494-0.018,0.987-0.034,1.481-0.045c0.306-0.008,0.49,0.179,0.491,0.491c0.001,0.388-0.008,0.779,0.003,1.168
	c0.003,0.149-0.035,0.185-0.184,0.184c-1.179-0.008-2.359-0.003-3.539-0.003C21.235,24.545,21.235,24.581,21.235,24.616z"/>
<path fill="#FFFFFF" d="M26.498,27.4c-0.84,0-1.666,0-2.534,0c0.427-0.711,0.83-1.385,1.244-2.077
	C25.645,26.024,26.068,26.708,26.498,27.4z"/>
</svg>
