<?xml version="1.0" encoding="utf-8"?>
<!-- Generator: Adobe Illustrator 16.0.4, SVG Export Plug-In . SVG Version: 6.00 Build 0)  -->
<!DOCTYPE svg PUBLIC "-//W3C//DTD SVG 1.1//EN" "http://www.w3.org/Graphics/SVG/1.1/DTD/svg11.dtd">
<svg version="1.1" id="Laag_1" xmlns="http://www.w3.org/2000/svg" xmlns:xlink="http://www.w3.org/1999/xlink" x="0px" y="0px"
	 width="70px" height="70px" viewBox="0 0 70 70" enable-background="new 0 0 70 70" xml:space="preserve">
<circle fill="#91A5B1" cx="35" cy="35" r="35"/>
<path fill="#FFFFFF" d="M26.696,59.487c-0.664-0.096-1.334-0.142-1.982-0.319c-0.696-0.19-1.36-0.442-1.908-0.931
	c-0.466-0.411-0.714-0.91-0.712-1.553c0.007-8.326,0.007-16.65,0.002-24.978c-0.002-2.046,0.65-3.823,2.076-5.303
	c0.325-0.336,0.677-0.64,1.068-0.895c0.12-0.077,0.168-0.149,0.168-0.296c-0.004-3.595-0.004-7.188,0-10.783
	c0-0.123-0.033-0.202-0.131-0.293c-0.339-0.31-0.346-0.747-0.4-1.16c-0.004-0.035,0-0.072,0-0.106
	c-0.002-0.735,0.167-0.99,0.875-1.174c1.249-0.321,2.496-0.316,3.73,0.092c0.167,0.057,0.331,0.135,0.489,0.216
	c0.299,0.156,0.473,0.376,0.453,0.748c-0.016,0.304,0.017,0.607-0.016,0.912c-0.023,0.207-0.05,0.44-0.222,0.56
	c-0.207,0.144-0.202,0.319-0.202,0.526c0.002,3.458,0.002,6.918-0.002,10.378c-0.003,0.191,0.049,0.294,0.224,0.396
	c2.114,1.225,3.238,3.094,3.249,5.505c0.042,8.659,0.014,17.315,0.026,25.975c0,0.681-0.281,1.146-0.808,1.502
	c-0.711,0.485-1.527,0.675-2.358,0.825c-0.346,0.061-0.701,0.041-1.038,0.156C28.417,59.487,27.556,59.487,26.696,59.487z"/>
<path fill="#FFFFFF" d="M45.359,59.487c-0.453-0.104-0.92-0.1-1.373-0.209c-0.311-0.073-0.621-0.151-0.924-0.264
	c-0.916-0.342-1.426-0.973-1.459-1.971c-0.055-1.585-0.125-3.166-0.179-4.748c-0.071-2.156-0.135-4.312-0.194-6.47
	c-0.026-0.929-0.045-1.861-0.056-2.792c-0.005-0.51,0.237-0.93,0.533-1.318c0.073-0.099,0.118-0.171,0.06-0.306
	c-0.084-0.197-0.074-0.42-0.072-0.636c0-0.394,0.027-0.789,0-1.183c-0.023-0.348,0.138-0.53,0.427-0.661
	c0.521-0.234,1.075-0.332,1.632-0.412c2.188-0.313,4.372-0.256,6.551,0.104c0.271,0.044,0.54,0.115,0.807,0.199
	c0.297,0.1,0.451,0.287,0.5,0.597c0.088,0.56-0.004,1.108-0.096,1.653c-0.041,0.227,0.002,0.38,0.205,0.49
	c0.432,0.231,0.59,0.58,0.579,1.082c-0.032,1.891-0.013,3.781-0.03,5.672c-0.02,2.088-0.045,4.172-0.094,6.26
	c-0.021,0.975-0.054,1.949-0.135,2.922c-0.045,0.534-0.293,0.91-0.732,1.178c-0.635,0.383-1.343,0.526-2.06,0.653
	c-0.361,0.065-0.735,0.047-1.093,0.157C47.227,59.487,46.292,59.487,45.359,59.487z"/>
</svg>
