<?xml version="1.0" encoding="utf-8"?>
<!-- Generator: Adobe Illustrator 16.0.4, SVG Export Plug-In . SVG Version: 6.00 Build 0)  -->
<!DOCTYPE svg PUBLIC "-//W3C//DTD SVG 1.1//EN" "http://www.w3.org/Graphics/SVG/1.1/DTD/svg11.dtd">
<svg version="1.1" id="Laag_1" xmlns="http://www.w3.org/2000/svg" xmlns:xlink="http://www.w3.org/1999/xlink" x="0px" y="0px"
	 width="70px" height="70px" viewBox="0 0 70 70" enable-background="new 0 0 70 70" xml:space="preserve">
<circle fill="#DFE6D4" cx="35" cy="35" r="35"/>
<path fill="#FFFFFF" d="M31.979,54.998c-0.236-0.105-0.497-0.085-0.745-0.134c-0.162-0.033-0.218-0.089-0.223-0.259
	c-0.031-1.192-0.072-2.386-0.111-3.576c-0.064-1.969-0.132-3.936-0.194-5.9c-0.047-1.416-0.084-2.832-0.127-4.248
	c-0.064-2.082-0.135-4.165-0.2-6.248c-0.056-1.816-0.11-3.632-0.165-5.448c-0.012-0.366-0.014-0.366-0.368-0.403
	c-0.408-0.044-0.815-0.087-1.222-0.145c-0.169-0.024-0.224,0.025-0.218,0.194c0.096,2.839,0.189,5.678,0.282,8.519
	c0.066,1.993,0.129,3.986,0.195,5.981c0.103,2.972,0.207,5.942,0.31,8.916c0.021,0.642,0.037,1.282,0.059,1.922
	c0.006,0.151-0.015,0.211-0.193,0.154c-0.457-0.147-0.901-0.325-1.346-0.507c-0.149-0.062-0.18-0.17-0.188-0.315
	c-0.083-1.646-0.173-3.289-0.262-4.935c-0.14-2.614-0.279-5.229-0.418-7.842c-0.16-3.031-0.32-6.063-0.479-9.097
	c-0.056-1.076-0.113-2.152-0.164-3.229c-0.008-0.159-0.061-0.231-0.223-0.271c-0.328-0.079-0.652-0.178-0.971-0.287
	c-0.186-0.065-0.244-0.056-0.232,0.169c0.105,2.072,0.194,4.146,0.296,6.217c0.156,3.183,0.318,6.365,0.48,9.548
	c0.141,2.774,0.284,5.55,0.425,8.322c0.005,0.094,0,0.188,0,0.285c-0.133-0.013-0.164-0.105-0.213-0.172
	c-0.552-0.734-0.912-1.562-1.166-2.439c-0.106-0.371-0.073-0.763-0.097-1.143c-0.192-3.095-0.369-6.188-0.556-9.279
	c-0.237-3.956-0.479-7.91-0.713-11.865c-0.015-0.256-0.073-0.439-0.334-0.531c-0.106-0.037-0.196-0.121-0.293-0.183
	c-0.647-0.413-1.056-0.927-0.97-1.77c0.055-0.544-0.024-1.103-0.038-1.654c-0.002-0.083-0.045-0.192,0.054-0.244
	c0.107-0.057,0.186,0.035,0.259,0.09c0.732,0.555,1.48,1.077,2.344,1.417c1.293,0.507,2.643,0.772,4.014,0.957
	c2.763,0.37,5.541,0.436,8.321,0.396c2.677-0.039,5.336-0.243,7.938-0.933c0.798-0.212,1.578-0.48,2.322-0.848
	c0.618-0.306,1.197-0.665,1.68-1.168c0.039-0.042,0.076-0.116,0.146-0.096c0.075,0.024,0.06,0.104,0.058,0.162
	c-0.059,0.897-0.115,1.795-0.18,2.691c-0.018,0.227-0.174,0.387-0.318,0.543c-0.316,0.342-0.674,0.64-1.086,0.858
	c-0.188,0.101-0.262,0.229-0.276,0.436c-0.108,1.313-0.226,2.626-0.34,3.938c-0.153,1.775-0.31,3.55-0.464,5.323
	c-0.148,1.713-0.291,3.427-0.447,5.138c-0.202,2.173-0.344,4.353-0.648,6.513c-0.13,0.918-0.381,1.807-0.764,2.655
	c-0.738,1.638-2.021,2.614-3.711,3.124c-1.191,0.36-2.408,0.559-3.646,0.646c-0.072,0.006-0.16-0.035-0.22,0.049
	c-0.803,0-1.605,0-2.408,0c-0.072-0.078-0.08-0.176-0.084-0.275c-0.005-0.123-0.003-0.249-0.003-0.374
	c0-8.22,0.001-16.438-0.001-24.659c0-0.648,0.032-0.606-0.614-0.608c-0.205-0.001-0.41,0.004-0.614-0.001
	c-0.196-0.007-0.264,0.079-0.26,0.273c0.013,0.659,0.005,1.318,0.005,1.979c0,0.82-0.021,1.642,0.004,2.46
	c0.066,2.238,0.003,4.477,0.062,6.711c0.053,1.917-0.021,3.834,0.051,5.748c0.071,1.997-0.004,3.994,0.055,5.988
	c0.022,0.783,0.035,1.568,0.04,2.352c0.001,0.148,0.021,0.311-0.139,0.407C32.478,54.998,32.229,54.998,31.979,54.998z"/>
<path fill="#FFFFFF" d="M37.167,24.439c-0.28,0.006-0.562,0.012-0.842,0.017c-1.105,0.034-2.211,0.006-3.315,0.015
	c-0.098,0.001-0.196,0.014-0.293-0.016c-1.284,0.004-2.558-0.133-3.827-0.32c-1.814-0.27-3.568-0.733-5.191-1.617
	c-0.367-0.201-0.73-0.411-1.013-0.729c-0.39-0.438-0.365-0.871,0.085-1.248c0.565-0.474,1.251-0.704,1.94-0.917
	c1.389-0.428,2.817-0.664,4.256-0.857c0.59-0.079,1.177-0.184,1.768-0.268c0.123-0.017,0.182-0.089,0.241-0.181
	c0.764-1.173,1.821-1.929,3.208-2.142c1.685-0.261,3.173,0.155,4.371,1.43c0.09,0.097,0.201,0.19,0.248,0.308
	c0.172,0.418,0.522,0.479,0.911,0.523c1.745,0.196,3.481,0.448,5.188,0.86c0.902,0.219,1.771,0.543,2.545,1.076
	c0.129,0.09,0.258,0.188,0.361,0.304c0.537,0.596,0.266,1.115-0.287,1.509c-0.739,0.53-1.594,0.831-2.457,1.098
	c-1.442,0.445-2.922,0.708-4.418,0.889c-0.64,0.078-1.281,0.121-1.922,0.175c-0.336,0.027-0.675,0.04-1.011,0.061
	C37.534,24.441,37.348,24.387,37.167,24.439z"/>
</svg>
